<svg width="82" height="82" viewBox="0 0 82 82" fill="none" xmlns="http://www.w3.org/2000/svg">
<path d="M41.3716 0.406982C19.0809 0.406982 0.948364 18.5412 0.948364 40.8302C0.948364 63.1191 19.0809 81.2534 41.3716 81.2534C63.6623 81.2534 81.7948 63.1191 81.7948 40.8302C81.7948 18.5412 63.6623 0.406982 41.3716 0.406982ZM41.3716 77.8848C20.9395 77.8848 4.31691 61.2622 4.31691 40.8302C4.31691 20.3981 20.9395 3.77553 41.3716 3.77553C61.8036 3.77553 78.4262 20.3981 78.4262 40.8302C78.4262 61.2622 61.8036 77.8848 41.3716 77.8848Z" fill="white"/>
<path d="M57.4419 39.414L33.8618 24.2553C33.3453 23.9181 32.6775 23.9 32.1446 24.1927C31.6017 24.4888 31.2662 25.0547 31.2662 25.6715V55.9889C31.2662 56.6057 31.6017 57.1716 32.1446 57.4676C32.3946 57.6042 32.6742 57.6732 32.9505 57.6732C33.2663 57.6732 33.5855 57.5843 33.8618 57.4051L57.4419 42.2464C57.9223 41.9372 58.215 41.4026 58.215 40.8302C58.215 40.2578 57.9223 39.7233 57.4419 39.414ZM34.6347 52.9031V28.7572L53.4154 40.8302L34.6347 52.9031Z" fill="white"/>
</svg>
